<?xml version="1.0" encoding="UTF-8"?>
<svg id="Capa_2" data-name="Capa 2" xmlns="http://www.w3.org/2000/svg" viewBox="0 0 155.44 71.2">
  <defs>
    <style>
      .cls-1 {
        fill: #fff;
      }
    </style>
  </defs>
  <g id="Capa_1-2" data-name="Capa 1">
    <path class="cls-1" d="M155.44,71.01h-11.01s0-9,0-9c-16.79,15.06-46.58,10.27-56.16-10.33-4-8.61,1.72-8.61,6.67-14.65,2.19,2.79,1.7,6.31,3.3,9.68,6.83,14.38,29.14,17.22,39.72,5.32,19.2-21.6-8.5-54.31-34.44-34.44-16.58,12.71-42.33,50.11-61.82,53.18C16.97,74.65-5.4,51.58,1.16,27.23,8.8-1.12,43.19-9.47,62.37,12.64c.18,1.03-5.02,6.47-5.95,6.9-3.36,1.53-4.91-2.64-7.64-4.37C29.24,2.79,5.15,21.94,12.96,43.98c5.3,14.96,24.38,20.1,36.97,11.02C68.5,41.61,90.65,4.97,113.31.62c11.51-2.21,21.74,2.08,31.12,8.39V0s11.01,0,11.01,0v71Z"/>
  </g>
</svg>